<svg xmlns="http://www.w3.org/2000/svg" viewBox="0 0 400 320" fill="none" aria-hidden="true">
  <defs>
    <linearGradient id="docGrad" x1="0%" y1="0%" x2="100%" y2="100%">
      <stop offset="0%" style="stop-color:#dbeafe"/>
      <stop offset="100%" style="stop-color:#eff6ff"/>
    </linearGradient>
    <linearGradient id="accentGrad" x1="0%" y1="0%" x2="0%" y2="100%">
      <stop offset="0%" style="stop-color:#3b82f6"/>
      <stop offset="100%" style="stop-color:#2563eb"/>
    </linearGradient>
  </defs>
  <!-- Document / form shape -->
  <rect x="80" y="40" width="200" height="260" rx="12" fill="url(#docGrad)" stroke="#93c5fd" stroke-width="1.5"/>
  <!-- Document lines (form fields) -->
  <rect x="100" y="70" width="160" height="10" rx="4" fill="#bfdbfe"/>
  <rect x="100" y="95" width="140" height="10" rx="4" fill="#bfdbfe"/>
  <rect x="100" y="120" width="120" height="10" rx="4" fill="#bfdbfe"/>
  <rect x="100" y="155" width="160" height="10" rx="4" fill="#bfdbfe"/>
  <rect x="100" y="180" width="100" height="10" rx="4" fill="#bfdbfe"/>
  <!-- Checkmark circle (validation / done) -->
  <circle cx="260" cy="100" r="28" fill="url(#accentGrad)"/>
  <path d="M250 100l8 8 16-18" stroke="white" stroke-width="4" stroke-linecap="round" stroke-linejoin="round" fill="none"/>
  <!-- Small screen/device (online) -->
  <rect x="120" y="220" width="100" height="64" rx="8" fill="white" stroke="#93c5fd" stroke-width="1.5"/>
  <rect x="132" y="232" width="76" height="8" rx="2" fill="#dbeafe"/>
  <rect x="132" y="248" width="56" height="8" rx="2" fill="#dbeafe"/>
  <!-- Cursor / pointer -->
  <path d="M230 200l20 24-6-2-8 10-2-12z" fill="#2563eb"/>
</svg>
